<?xml version="1.0" encoding="UTF-8" standalone="no"?>
<!-- Created with Inkscape (http://www.inkscape.org/) -->

<svg
   width="512"
   height="512"
   viewBox="0 0 135.46666 135.46667"
   version="1.1"
   id="svg1"
   inkscape:version="1.4.3 (0d15f75, 2025-12-25)"
   sodipodi:docname="Blank_stop_sign_octagon.svg"
   xmlns:inkscape="http://www.inkscape.org/namespaces/inkscape"
   xmlns:sodipodi="http://sodipodi.sourceforge.net/DTD/sodipodi-0.dtd"
   xmlns="http://www.w3.org/2000/svg"
   xmlns:svg="http://www.w3.org/2000/svg">
  <sodipodi:namedview
     id="namedview1"
     pagecolor="#ffffff"
     bordercolor="#000000"
     borderopacity="0.25"
     inkscape:showpageshadow="2"
     inkscape:pageopacity="0.0"
     inkscape:pagecheckerboard="0"
     inkscape:deskcolor="#d1d1d1"
     inkscape:document-units="px"
     inkscape:zoom="1.3772587"
     inkscape:cx="310.03616"
     inkscape:cy="242.87376"
     inkscape:window-width="1920"
     inkscape:window-height="991"
     inkscape:window-x="-9"
     inkscape:window-y="-9"
     inkscape:window-maximized="1"
     inkscape:current-layer="layer1" />
  <defs
     id="defs1">
    <rect
       x="115.44672"
       y="307.85792"
       width="207.65888"
       height="92.93824"
       id="rect3" />
    <rect
       x="-91.48608"
       y="100.92512"
       width="541.65568"
       height="109.63808"
       id="rect2" />
  </defs>
  <g
     inkscape:label="Layer 1"
     inkscape:groupmode="layer"
     id="layer1">
    <path
       sodipodi:type="star"
       style="fill:#ff0000;stroke-width:0.264583"
       id="path2"
       inkscape:flatsided="false"
       sodipodi:sides="8"
       sodipodi:cx="26.896585"
       sodipodi:cy="33.688652"
       sodipodi:r1="55.912533"
       sodipodi:r2="51.463482"
       sodipodi:arg1="0.52359878"
       sodipodi:arg2="0.91629786"
       inkscape:rounded="0"
       inkscape:randomized="0"
       d="M 75.318259,61.644919 58.225568,74.517377 41.367814,87.696012 20.179253,84.711857 -1.0596812,82.110326 -13.93214,65.017635 -27.110774,48.15988 -24.126619,26.97132 -21.525088,5.7323854 -4.4323972,-7.1400733 12.425357,-20.318707 33.613918,-17.334553 54.852852,-14.733022 67.725311,2.3596694 80.903945,19.217424 77.91979,40.405985 Z"
       transform="matrix(1.3005068,-0.17075575,0.17075575,1.3005068,27.069586,28.740882)" />
    <path
       style="font-weight:bold;font-size:80px;font-family:Consolas;-inkscape-font-specification:'Consolas Bold';white-space:pre;fill:#ffffff"
       d="m -84.298828,170.33984 v -51.05468 h 30.742187 v 8.125 h -20.976562 v 12.69531 h 20 v 7.92969 h -20 v 14.17968 h 20.976562 v 8.125 z m 70.546875,0 -0.9375,-28.86718 -0.351563,-11.52344 -2.460937,7.8125 -5.664063,17.38281 h -6.015625 l -5.117187,-17.38281 -2.148438,-7.8125 -0.273437,11.28906 -0.859375,29.10156 h -8.164063 l 2.5,-51.05468 h 10.859375 l 4.492188,14.49218 2.148437,8.16407 2.148438,-7.69532 4.726562,-14.96093 h 11.0546879 l 2.5390625,51.05468 z m 17.4218749,0 V 119.28516 H 34.412109 v 8.125 H 13.435547 v 12.69531 h 20 v 7.92969 h -20 v 14.17968 h 20.976562 v 8.125 z m 67.5781251,0 -7.1875,-16.40625 q -1.015625,-2.34375 -2.851563,-3.51562 -1.796875,-1.21094 -4.257812,-1.21094 h -1.835938 v 21.13281 h -9.609375 v -51.05468 h 14.882813 q 4.21875,0 7.65625,0.74218 3.4375,0.70313 5.859375,2.38282 2.421875,1.67968 3.710937,4.375 1.328125,2.69531 1.328125,6.60156 0,2.8125 -0.820312,5 -0.820313,2.1875 -2.304688,3.78906 -1.484375,1.5625 -3.554687,2.53906 -2.03125,0.97657 -4.453125,1.36719 1.875,0.39063 3.4375,2.14844 1.5625,1.71875 3.125,5 l 8.164062,17.10937 z m -2.382813,-36.01562 q 0,-3.75 -2.382812,-5.39063 -2.382813,-1.64062 -7.148438,-1.64062 h -4.21875 v 14.41406 h 3.90625 q 2.226563,0 4.023438,-0.46875 1.835937,-0.46875 3.125,-1.40625 1.289062,-0.9375 1.992187,-2.30469 0.703125,-1.40625 0.703125,-3.20312 z m 37.812496,14.41406 v -7.92969 h 18.16407 v 27.22657 q -3.51563,1.64062 -7.34375,2.42187 -3.82813,0.78125 -8.32032,0.78125 -5.3125,0 -9.570308,-1.64062 -4.21875,-1.64063 -7.1875,-4.88282 -2.96875,-3.24218 -4.570313,-8.04687 -1.5625,-4.80469 -1.5625,-11.13281 0,-6.36719 1.640625,-11.40625 1.679688,-5.03907 4.84375,-8.51563 3.203125,-3.51562 7.812496,-5.35156 4.64844,-1.83594 10.58594,-1.83594 3.51563,0 6.83594,0.625 3.35937,0.58594 6.67969,1.60156 v 9.49219 q -2.89063,-1.36719 -6.40625,-2.22656 -3.47657,-0.89844 -7.03125,-0.89844 -3.59375,0 -6.36719,1.25 -2.73438,1.25 -4.60938,3.55469 -1.835933,2.30469 -2.812496,5.66406 -0.9375,3.35938 -0.9375,7.57813 0,4.0625 0.742188,7.34375 0.742187,3.24218 2.382812,5.54687 1.679686,2.26563 4.296876,3.47656 2.61719,1.21094 6.36719,1.21094 0.89843,0 1.5625,-0.0391 0.66406,-0.0781 1.25,-0.19531 0.58593,-0.11719 1.09375,-0.27344 0.54687,-0.15625 1.13281,-0.35156 v -13.04688 z m 28.94532,21.60156 v -51.05468 h 30.74218 v 8.125 h -20.97656 v 12.69531 h 20 v 7.92969 h -20 v 14.17968 h 20.97656 v 8.125 z m 65.70312,0 -13.67187,-30.46875 -2.8125,-6.5625 v 21.17188 15.85937 h -8.75 v -51.05468 h 11.79687 l 13.94531,30.66406 2.46094,5.97656 v -22.53906 -14.10156 h 8.75 v 51.05468 z m 54.29688,-1.99218 q -3.39844,1.36718 -6.60157,2.03125 -3.16406,0.66406 -6.60156,0.66406 -5.50781,0 -9.76562,-1.60156 -4.21875,-1.64063 -7.14844,-4.84375 -2.89063,-3.20313 -4.41406,-7.92969 -1.48438,-4.76563 -1.48438,-11.05469 0,-6.44531 1.64063,-11.44531 1.64062,-5.03906 4.6875,-8.47656 3.04687,-3.47657 7.38281,-5.27344 4.375,-1.83594 9.80469,-1.83594 1.75781,0 3.28125,0.0781 1.5625,0.0781 3.04687,0.3125 1.48438,0.19531 3.00781,0.54687 1.52344,0.35156 3.16407,0.89844 v 9.53125 q -3.32032,-1.5625 -6.32813,-2.22656 -3.00781,-0.66407 -5.46875,-0.66407 -3.63281,0 -6.21094,1.32813 -2.57812,1.28906 -4.25781,3.67187 -1.64062,2.34375 -2.42187,5.625 -0.78125,3.24219 -0.78125,7.14844 0,4.14063 0.78125,7.42188 0.82031,3.24218 2.5,5.50781 1.67968,2.26562 4.29687,3.47656 2.61719,1.17188 6.21094,1.17188 1.28906,0 2.77344,-0.23438 1.52343,-0.27344 3.04687,-0.66406 1.5625,-0.42969 3.04688,-0.97656 1.52343,-0.58594 2.8125,-1.17188 z m 31.52343,-16.09375 v 18.08593 h -9.76562 V 152.33203 L 260.7793,119.28516 h 10.66406 l 7.5,15.78125 3.4375,7.73437 3.4375,-7.96875 7.85156,-15.54687 h 10.23438 z"
       id="text2"
       transform="matrix(0.254686,0,0,0.51193744,40.661139,-26.795692)"
       aria-label="EMERGENCY" />
    <path
       style="font-weight:bold;font-size:80px;font-family:Consolas;-inkscape-font-specification:Consolas;white-space:pre;fill:#ffffff"
       d="m 155.29102,361.8418 q 0,4.17968 -1.5625,7.26562 -1.52344,3.08594 -4.29688,5.11719 -2.77344,1.99219 -6.60156,2.96875 -3.82813,0.97656 -8.35938,0.97656 -4.02343,0 -7.77343,-0.46875 -3.75,-0.46875 -7.42188,-1.5625 v -9.49219 q 1.79688,0.625 3.75,1.17188 1.95313,0.54687 3.90625,0.97656 1.99219,0.39063 3.94531,0.625 1.95313,0.23438 3.78907,0.23438 2.73437,0 4.64843,-0.46875 1.91407,-0.46875 3.125,-1.28907 1.21094,-0.82031 1.75782,-1.95312 0.54687,-1.13281 0.54687,-2.5 0,-1.875 -1.09375,-3.125 -1.05469,-1.28906 -2.8125,-2.26563 -1.75781,-0.97656 -4.02344,-1.75781 -2.22656,-0.78125 -4.57031,-1.67969 -2.30469,-0.89843 -4.57031,-2.03125 -2.22656,-1.13281 -3.98438,-2.8125 -1.75781,-1.67968 -2.85156,-3.98437 -1.05469,-2.34375 -1.05469,-5.625 0,-3.00781 1.09375,-5.70313 1.09375,-2.69531 3.4375,-4.6875 2.34375,-2.03125 6.01563,-3.20312 3.67187,-1.21094 8.86719,-1.21094 1.52343,0 3.16406,0.15625 1.67969,0.11719 3.28125,0.35156 1.64062,0.19532 3.125,0.50782 1.52344,0.27343 2.77344,0.58593 v 8.78907 q -1.25,-0.46875 -2.73438,-0.85938 -1.48437,-0.39062 -3.08594,-0.66406 -1.5625,-0.3125 -3.16406,-0.46875 -1.60156,-0.15625 -3.04687,-0.15625 -2.53907,0 -4.29688,0.42969 -1.75781,0.39062 -2.89062,1.13281 -1.13282,0.70312 -1.64063,1.75781 -0.50781,1.05469 -0.50781,2.34375 0,1.60156 1.05469,2.77344 1.09375,1.13281 2.85156,2.07031 1.79687,0.89844 4.02344,1.71875 2.26562,0.78125 4.60937,1.71875 2.38281,0.89844 4.60938,2.07031 2.26562,1.17188 4.02343,2.85157 1.79688,1.67968 2.85157,3.98437 1.09375,2.26563 1.09375,5.39063 z m 31.05468,-27.61719 v 43.04687 h -9.84375 v -43.04687 h -13.98437 v -8.00781 h 37.8125 v 8.00781 z m 59.60938,17.30469 q 0,6.95312 -1.64063,11.99218 -1.60156,5.03907 -4.45312,8.28125 -2.8125,3.24219 -6.64063,4.80469 -3.78906,1.5625 -8.125,1.5625 -10.07812,0 -15.15625,-6.67969 -5.07812,-6.71875 -5.07812,-19.49218 0,-6.95313 1.60156,-11.99219 1.64063,-5.03906 4.45313,-8.28125 2.85156,-3.24219 6.64062,-4.80469 3.82813,-1.5625 8.16406,-1.5625 10.07813,0 15.15625,6.67969 5.07813,6.67969 5.07813,19.49219 z m -10.15625,0.46875 q 0,-9.0625 -2.42188,-13.51563 -2.42187,-4.45312 -7.96875,-4.45312 -2.77343,0 -4.72656,1.17187 -1.95312,1.13281 -3.24219,3.35938 -1.25,2.22656 -1.83593,5.50781 -0.58594,3.24219 -0.58594,7.46094 0,9.0625 2.42187,13.51562 2.46094,4.45313 7.96875,4.45313 2.77344,0 4.72657,-1.13282 1.99218,-1.17187 3.24218,-3.39843 1.25,-2.22657 1.83594,-5.46875 0.58594,-3.28125 0.58594,-7.5 z m 52.30469,-9.53125 q 0,3.98437 -1.32813,7.38281 -1.32812,3.35937 -3.94531,5.82031 -2.61719,2.46094 -6.52344,3.82813 -3.90625,1.36718 -9.0625,1.36718 h -4.88281 v 16.40625 h -9.6875 V 326.2168 h 14.96094 q 4.96093,0 8.75,1.09375 3.82812,1.05468 6.40625,3.125 2.61718,2.07031 3.94531,5.11718 1.36719,3.00782 1.36719,6.91407 z m -10.07813,0.66406 q 0,-2.03125 -0.66406,-3.67188 -0.625,-1.67968 -1.95313,-2.85156 -1.28906,-1.17187 -3.28125,-1.79687 -1.99218,-0.625 -4.72656,-0.625 h -5.03906 v 18.71093 h 5.35156 q 2.5,0 4.41406,-0.66406 1.91407,-0.70312 3.20313,-1.99219 1.32812,-1.28906 1.99219,-3.08593 0.70312,-1.79688 0.70312,-4.02344 z"
       id="text3"
       transform="matrix(0.60140023,0,0,0.79566717,-54.1979,-195.07668)"
       aria-label="STOP" />
  </g>
</svg>
