<?xml version="1.0" encoding="UTF-8" standalone="no"?>
<!-- Created with Inkscape (http://www.inkscape.org/) -->

<svg
   width="512"
   height="512"
   viewBox="0 0 135.46666 135.46667"
   version="1.1"
   id="svg1"
   xml:space="preserve"
   inkscape:version="1.4.3 (0d15f75, 2025-12-25)"
   sodipodi:docname="Controlled_Stop.svg"
   xmlns:inkscape="http://www.inkscape.org/namespaces/inkscape"
   xmlns:sodipodi="http://sodipodi.sourceforge.net/DTD/sodipodi-0.dtd"
   xmlns="http://www.w3.org/2000/svg"
   xmlns:svg="http://www.w3.org/2000/svg"><sodipodi:namedview
     id="namedview1"
     pagecolor="#ffffff"
     bordercolor="#000000"
     borderopacity="0.25"
     inkscape:showpageshadow="2"
     inkscape:pageopacity="0.0"
     inkscape:pagecheckerboard="0"
     inkscape:deskcolor="#d1d1d1"
     inkscape:document-units="px"
     inkscape:zoom="0.97386896"
     inkscape:cx="310.10332"
     inkscape:cy="196.63836"
     inkscape:window-width="1920"
     inkscape:window-height="991"
     inkscape:window-x="-9"
     inkscape:window-y="-9"
     inkscape:window-maximized="1"
     inkscape:current-layer="layer1-8" /><defs
     id="defs1"><rect
       x="16.429315"
       y="94.468561"
       width="572.97236"
       height="187.91029"
       id="rect1" /><rect
       x="115.44672"
       y="307.85792"
       width="207.65888"
       height="92.93824"
       id="rect3" /><rect
       x="-91.48608"
       y="100.92512"
       width="541.65568"
       height="109.63808"
       id="rect2" /></defs><g
     inkscape:label="Layer 1"
     inkscape:groupmode="layer"
     id="layer1"><g
       inkscape:label="Layer 1"
       id="layer1-8"
       transform="translate(0.22288788,-0.32566809)"><path
         sodipodi:type="star"
         style="fill:#ff6600;stroke-width:0.264583"
         id="path2"
         inkscape:flatsided="false"
         sodipodi:sides="8"
         sodipodi:cx="26.896585"
         sodipodi:cy="33.688652"
         sodipodi:r1="55.912533"
         sodipodi:r2="51.463482"
         sodipodi:arg1="0.52359878"
         sodipodi:arg2="0.91629786"
         inkscape:rounded="0"
         inkscape:randomized="0"
         d="M 75.318259,61.644919 58.225568,74.517377 41.367814,87.696012 20.179253,84.711857 -1.0596812,82.110326 -13.93214,65.017635 -27.110774,48.15988 -24.126619,26.97132 -21.525088,5.7323854 -4.4323972,-7.1400733 12.425357,-20.318707 33.613918,-17.334553 54.852852,-14.733022 67.725311,2.3596694 80.903945,19.217424 77.91979,40.405985 Z"
         transform="matrix(1.3005068,-0.17075575,0.17075575,1.3005068,27.069586,28.740882)" /><path
         style="font-weight:bold;font-size:80px;font-family:Consolas;-inkscape-font-specification:Consolas;white-space:pre;fill:#ffffff"
         d="m 155.29102,361.8418 q 0,4.17968 -1.5625,7.26562 -1.52344,3.08594 -4.29688,5.11719 -2.77344,1.99219 -6.60156,2.96875 -3.82813,0.97656 -8.35938,0.97656 -4.02343,0 -7.77343,-0.46875 -3.75,-0.46875 -7.42188,-1.5625 v -9.49219 q 1.79688,0.625 3.75,1.17188 1.95313,0.54687 3.90625,0.97656 1.99219,0.39063 3.94531,0.625 1.95313,0.23438 3.78907,0.23438 2.73437,0 4.64843,-0.46875 1.91407,-0.46875 3.125,-1.28907 1.21094,-0.82031 1.75782,-1.95312 0.54687,-1.13281 0.54687,-2.5 0,-1.875 -1.09375,-3.125 -1.05469,-1.28906 -2.8125,-2.26563 -1.75781,-0.97656 -4.02344,-1.75781 -2.22656,-0.78125 -4.57031,-1.67969 -2.30469,-0.89843 -4.57031,-2.03125 -2.22656,-1.13281 -3.98438,-2.8125 -1.75781,-1.67968 -2.85156,-3.98437 -1.05469,-2.34375 -1.05469,-5.625 0,-3.00781 1.09375,-5.70313 1.09375,-2.69531 3.4375,-4.6875 2.34375,-2.03125 6.01563,-3.20312 3.67187,-1.21094 8.86719,-1.21094 1.52343,0 3.16406,0.15625 1.67969,0.11719 3.28125,0.35156 1.64062,0.19532 3.125,0.50782 1.52344,0.27343 2.77344,0.58593 v 8.78907 q -1.25,-0.46875 -2.73438,-0.85938 -1.48437,-0.39062 -3.08594,-0.66406 -1.5625,-0.3125 -3.16406,-0.46875 -1.60156,-0.15625 -3.04687,-0.15625 -2.53907,0 -4.29688,0.42969 -1.75781,0.39062 -2.89062,1.13281 -1.13282,0.70312 -1.64063,1.75781 -0.50781,1.05469 -0.50781,2.34375 0,1.60156 1.05469,2.77344 1.09375,1.13281 2.85156,2.07031 1.79687,0.89844 4.02344,1.71875 2.26562,0.78125 4.60937,1.71875 2.38281,0.89844 4.60938,2.07031 2.26562,1.17188 4.02343,2.85157 1.79688,1.67968 2.85157,3.98437 1.09375,2.26563 1.09375,5.39063 z m 31.05468,-27.61719 v 43.04687 h -9.84375 v -43.04687 h -13.98437 v -8.00781 h 37.8125 v 8.00781 z m 59.60938,17.30469 q 0,6.95312 -1.64063,11.99218 -1.60156,5.03907 -4.45312,8.28125 -2.8125,3.24219 -6.64063,4.80469 -3.78906,1.5625 -8.125,1.5625 -10.07812,0 -15.15625,-6.67969 -5.07812,-6.71875 -5.07812,-19.49218 0,-6.95313 1.60156,-11.99219 1.64063,-5.03906 4.45313,-8.28125 2.85156,-3.24219 6.64062,-4.80469 3.82813,-1.5625 8.16406,-1.5625 10.07813,0 15.15625,6.67969 5.07813,6.67969 5.07813,19.49219 z m -10.15625,0.46875 q 0,-9.0625 -2.42188,-13.51563 -2.42187,-4.45312 -7.96875,-4.45312 -2.77343,0 -4.72656,1.17187 -1.95312,1.13281 -3.24219,3.35938 -1.25,2.22656 -1.83593,5.50781 -0.58594,3.24219 -0.58594,7.46094 0,9.0625 2.42187,13.51562 2.46094,4.45313 7.96875,4.45313 2.77344,0 4.72657,-1.13282 1.99218,-1.17187 3.24218,-3.39843 1.25,-2.22657 1.83594,-5.46875 0.58594,-3.28125 0.58594,-7.5 z m 52.30469,-9.53125 q 0,3.98437 -1.32813,7.38281 -1.32812,3.35937 -3.94531,5.82031 -2.61719,2.46094 -6.52344,3.82813 -3.90625,1.36718 -9.0625,1.36718 h -4.88281 v 16.40625 h -9.6875 V 326.2168 h 14.96094 q 4.96093,0 8.75,1.09375 3.82812,1.05468 6.40625,3.125 2.61718,2.07031 3.94531,5.11718 1.36719,3.00782 1.36719,6.91407 z m -10.07813,0.66406 q 0,-2.03125 -0.66406,-3.67188 -0.625,-1.67968 -1.95313,-2.85156 -1.28906,-1.17187 -3.28125,-1.79687 -1.99218,-0.625 -4.72656,-0.625 h -5.03906 v 18.71093 h 5.35156 q 2.5,0 4.41406,-0.66406 1.91407,-0.70312 3.20313,-1.99219 1.32812,-1.28906 1.99219,-3.08593 0.70312,-1.79688 0.70312,-4.02344 z"
         id="text3"
         transform="matrix(0.60140023,0,0,0.79566717,-54.1979,-195.07668)"
         aria-label="STOP" /><path
         d="m 55.648437,161.89062 q -3.398437,1.36719 -6.601562,2.03125 -3.164063,0.66407 -6.601563,0.66407 -5.507812,0 -9.765625,-1.60157 -4.21875,-1.64062 -7.148437,-4.84375 -2.890625,-3.20312 -4.414063,-7.92968 -1.484375,-4.76563 -1.484375,-11.05469 0,-6.44531 1.640625,-11.44531 1.640625,-5.03906 4.6875,-8.47656 3.046875,-3.47657 7.382813,-5.27344 4.375,-1.83594 9.804687,-1.83594 1.757813,0 3.28125,0.0781 1.5625,0.0781 3.046875,0.3125 1.484375,0.19531 3.007813,0.54687 1.523437,0.35156 3.164062,0.89844 v 9.53125 q -3.320312,-1.5625 -6.328125,-2.22656 -3.007812,-0.66407 -5.46875,-0.66407 -3.632812,0 -6.210937,1.32813 -2.578125,1.28906 -4.257813,3.67187 -1.640625,2.34375 -2.421875,5.625 -0.78125,3.24219 -0.78125,7.14844 0,4.14062 0.78125,7.42187 0.820313,3.24219 2.5,5.50782 1.679688,2.26562 4.296875,3.47656 2.617188,1.17187 6.210938,1.17187 1.289062,0 2.773437,-0.23437 1.523438,-0.27344 3.046875,-0.66406 1.5625,-0.42969 3.046875,-0.97657 1.523438,-0.58593 2.8125,-1.17187 z m 47.304693,-23.75 q 0,6.95313 -1.64063,11.99219 -1.601563,5.03906 -4.453125,8.28125 -2.8125,3.24219 -6.640625,4.80469 -3.789063,1.5625 -8.125,1.5625 -10.078125,0 -15.15625,-6.67969 -5.078125,-6.71875 -5.078125,-19.49219 0,-6.95312 1.601562,-11.99218 1.640625,-5.03906 4.453125,-8.28125 2.851563,-3.24219 6.640625,-4.80469 3.828125,-1.5625 8.164063,-1.5625 10.078125,0 15.15625,6.67969 5.07813,6.67969 5.07813,19.49218 z m -10.156255,0.46875 q 0,-9.0625 -2.421875,-13.51562 -2.421875,-4.45312 -7.96875,-4.45312 -2.773438,0 -4.726563,1.17187 -1.953125,1.13281 -3.242187,3.35938 -1.25,2.22656 -1.835938,5.50781 -0.585937,3.24218 -0.585937,7.46093 0,9.0625 2.421875,13.51563 2.460937,4.45312 7.96875,4.45312 2.773437,0 4.726562,-1.13281 1.992188,-1.17187 3.242188,-3.39844 1.25,-2.22656 1.835937,-5.46875 0.585938,-3.28125 0.585938,-7.5 z m 40.507815,25.27344 -13.67188,-30.46875 -2.8125,-6.5625 v 21.17188 15.85937 h -8.75 v -51.05468 h 11.79688 l 13.94531,30.66406 2.46094,5.97656 v -22.53906 -14.10156 h 8.75 v 51.05468 z m 41.99218,-43.04687 v 43.04687 h -9.84375 v -43.04687 h -13.98437 v -8.00781 h 37.8125 v 8.00781 z m 47.85157,43.04687 -7.1875,-16.40625 q -1.01563,-2.34375 -2.85157,-3.51562 Q 211.3125,142.75 208.85156,142.75 h -1.83594 v 21.13281 h -9.60937 v -51.05468 h 14.88281 q 4.21875,0 7.65625,0.74218 3.4375,0.70313 5.85938,2.38282 2.42187,1.67968 3.71093,4.375 1.32813,2.69531 1.32813,6.60156 0,2.8125 -0.82031,5 -0.82032,2.1875 -2.30469,3.78906 -1.48438,1.5625 -3.55469,2.53906 -2.03125,0.97656 -4.45312,1.36719 1.875,0.39062 3.4375,2.14844 1.5625,1.71875 3.125,5 l 8.16406,17.10937 z m -2.38282,-36.01562 q 0,-3.75 -2.38281,-5.39063 -2.38281,-1.64062 -7.14844,-1.64062 h -4.21875 V 135.25 h 3.90625 q 2.22657,0 4.02344,-0.46875 1.83594,-0.46875 3.125,-1.40625 1.28906,-0.9375 1.99219,-2.30469 0.70312,-1.40625 0.70312,-3.20312 z m 58.125,10.27343 q 0,6.95313 -1.64062,11.99219 -1.60156,5.03906 -4.45313,8.28125 -2.8125,3.24219 -6.64062,4.80469 -3.78906,1.5625 -8.125,1.5625 -10.07813,0 -15.15625,-6.67969 -5.07813,-6.71875 -5.07813,-19.49219 0,-6.95312 1.60157,-11.99218 1.64062,-5.03906 4.45312,-8.28125 2.85156,-3.24219 6.64063,-4.80469 3.82812,-1.5625 8.16406,-1.5625 10.07812,0 15.15625,6.67969 5.07812,6.67969 5.07812,19.49218 z m -10.15625,0.46875 q 0,-9.0625 -2.42187,-13.51562 -2.42188,-4.45312 -7.96875,-4.45312 -2.77344,0 -4.72656,1.17187 -1.95313,1.13281 -3.24219,3.35938 -1.25,2.22656 -1.83594,5.50781 -0.58594,3.24218 -0.58594,7.46093 0,9.0625 2.42188,13.51563 2.46094,4.45312 7.96875,4.45312 2.77344,0 4.72656,-1.13281 1.99219,-1.17187 3.24219,-3.39844 1.25,-2.22656 1.83594,-5.46875 0.58593,-3.28125 0.58593,-7.5 z m 19.29688,25.27344 v -51.05468 h 9.76562 v 42.81249 h 21.5625 v 8.24219 z m 43.98437,0 v -51.05468 h 9.76563 v 42.81249 h 21.5625 v 8.24219 z m 43.47657,0 v -51.05468 h 30.74218 v 8.125 h -20.97656 v 12.69531 h 20 v 7.92968 h -20 v 14.17969 h 20.97656 v 8.125 z m 78.71093,-26.17187 q 0,5.9375 -1.48437,10.78125 -1.44531,4.84375 -4.57031,8.28125 -3.08594,3.39843 -7.92969,5.27343 -4.84375,1.83594 -11.60156,1.83594 h -12.96875 v -51.05468 h 15.11718 q 5.85938,0 10.23438,1.48437 4.41406,1.44531 7.34375,4.49219 2.92969,3.04687 4.375,7.73437 1.48437,4.6875 1.48437,11.17188 z m -10.3125,0.625 q 0,-4.14063 -0.66406,-7.38282 -0.66406,-3.24218 -2.26562,-5.46874 -1.5625,-2.26563 -4.21875,-3.4375 -2.65625,-1.17188 -6.60157,-1.17188 h -4.88281 v 34.96094 h 4.21875 q 7.07031,0 10.74219,-4.21875 3.67187,-4.21875 3.67187,-13.28125 z"
         id="text1"
         style="font-weight:bold;font-size:80px;font-family:Consolas;-inkscape-font-specification:'Consolas Bold';white-space:pre;fill:#ffffff"
         transform="matrix(0.23707562,0,0,0.52694199,10.91279,-27.148524)"
         aria-label="CONTROLLED" /></g></g></svg>
