<?xml version="1.0" encoding="UTF-8" standalone="no"?>
<!-- Created with Inkscape (http://www.inkscape.org/) -->

<svg
   width="512"
   height="512"
   viewBox="0 0 135.46666 135.46667"
   version="1.1"
   id="svg1"
   inkscape:version="1.4.3 (0d15f75, 2025-12-25)"
   sodipodi:docname="continue.svg"
   xmlns:inkscape="http://www.inkscape.org/namespaces/inkscape"
   xmlns:sodipodi="http://sodipodi.sourceforge.net/DTD/sodipodi-0.dtd"
   xmlns="http://www.w3.org/2000/svg"
   xmlns:svg="http://www.w3.org/2000/svg">
  <sodipodi:namedview
     id="namedview1"
     pagecolor="#ffffff"
     bordercolor="#000000"
     borderopacity="0.25"
     inkscape:showpageshadow="2"
     inkscape:pageopacity="0.0"
     inkscape:pagecheckerboard="0"
     inkscape:deskcolor="#d1d1d1"
     inkscape:document-units="px"
     inkscape:zoom="1.3772587"
     inkscape:cx="275.9104"
     inkscape:cy="258.84752"
     inkscape:window-width="1920"
     inkscape:window-height="991"
     inkscape:window-x="-9"
     inkscape:window-y="-9"
     inkscape:window-maximized="1"
     inkscape:current-layer="layer1" />
  <defs
     id="defs1">
    <rect
       x="93.66432"
       y="216.37184"
       width="416.76992"
       height="174.2592"
       id="rect1" />
  </defs>
  <g
     inkscape:label="Layer 1"
     inkscape:groupmode="layer"
     id="layer1">
    <path
       sodipodi:type="star"
       style="fill:#000000;stroke-width:0.264583"
       id="path1"
       inkscape:flatsided="false"
       sodipodi:sides="3"
       sodipodi:cx="34.963776"
       sodipodi:cy="45.721863"
       sodipodi:r1="42.55283"
       sodipodi:r2="42.404781"
       sodipodi:arg1="0.78539816"
       sodipodi:arg2="0.7844345"
       inkscape:rounded="0"
       inkscape:randomized="0"
       d="m 65.05317,75.811257 -0.0758,-0.133595 -71.1164666,-18.942316 0.1535992,0.0011 L 45.977258,4.6189855 45.899464,4.751432 Z"
       inkscape:transform-center-x="-33.691845"
       inkscape:transform-center-y="-0.066487215"
       transform="matrix(1.4858317,-1.2899091,1.4790088,1.2958597,-73.766816,53.629251)" />
    <path
       d="m 132.88281,283.79297 q -3.39844,1.36719 -6.60156,2.03125 -3.16406,0.66406 -6.60156,0.66406 -5.50781,0 -9.76563,-1.60156 -4.21875,-1.64063 -7.14843,-4.84375 -2.89063,-3.20313 -4.414068,-7.92969 -1.484375,-4.76562 -1.484375,-11.05469 0,-6.44531 1.640625,-11.44531 1.640628,-5.03906 4.687498,-8.47656 3.04688,-3.47656 7.38282,-5.27344 4.375,-1.83594 9.80468,-1.83594 1.75782,0 3.28125,0.0781 1.5625,0.0781 3.04688,0.3125 1.48437,0.19531 3.00781,0.54687 1.52344,0.35157 3.16406,0.89844 v 9.53125 q -3.32031,-1.5625 -6.32812,-2.22656 -3.00781,-0.66406 -5.46875,-0.66406 -3.63281,0 -6.21094,1.32812 -2.57812,1.28906 -4.25781,3.67188 -1.64063,2.34375 -2.42188,5.625 -0.78125,3.24218 -0.78125,7.14843 0,4.14063 0.78125,7.42188 0.82032,3.24219 2.5,5.50781 1.67969,2.26563 4.29688,3.47656 2.61719,1.17188 6.21094,1.17188 1.28906,0 2.77343,-0.23438 1.52344,-0.27343 3.04688,-0.66406 1.5625,-0.42969 3.04687,-0.97656 1.52344,-0.58594 2.8125,-1.17188 z m 47.30469,-23.75 q 0,6.95312 -1.64063,11.99219 -1.60156,5.03906 -4.45312,8.28125 -2.8125,3.24218 -6.64063,4.80468 -3.78906,1.5625 -8.125,1.5625 -10.07812,0 -15.15625,-6.67968 -5.07812,-6.71875 -5.07812,-19.49219 0,-6.95313 1.60156,-11.99219 1.64063,-5.03906 4.45313,-8.28125 2.85156,-3.24219 6.64062,-4.80469 3.82813,-1.5625 8.16406,-1.5625 10.07813,0 15.15625,6.67969 5.07813,6.67969 5.07813,19.49219 z m -10.15625,0.46875 q 0,-9.0625 -2.42188,-13.51563 -2.42187,-4.45312 -7.96875,-4.45312 -2.77343,0 -4.72656,1.17187 -1.95312,1.13282 -3.24219,3.35938 -1.25,2.22656 -1.83593,5.50781 -0.58594,3.24219 -0.58594,7.46094 0,9.0625 2.42187,13.51562 2.46094,4.45313 7.96875,4.45313 2.77344,0 4.72657,-1.13281 1.99218,-1.17188 3.24218,-3.39844 1.25,-2.22656 1.83594,-5.46875 0.58594,-3.28125 0.58594,-7.5 z m 40.50781,25.27344 -13.67187,-30.46875 -2.8125,-6.5625 v 21.17187 15.85938 h -8.75 v -51.05469 h 11.79687 l 13.94531,30.66406 2.46094,5.97656 v -22.53906 -14.10156 h 8.75 v 51.05469 z m 41.99219,-43.04688 v 43.04688 h -9.84375 v -43.04688 h -13.98438 v -8.00781 h 37.8125 v 8.00781 z m 22.92969,-0.15625 v -7.85156 h 32.26562 v 7.85156 h -11.25 v 35.27344 h 11.25 v 7.92969 h -32.26562 v -7.92969 h 11.25 v -35.27344 z m 67.03125,43.20313 -13.67188,-30.46875 -2.8125,-6.5625 v 21.17187 15.85938 h -8.75 v -51.05469 h 11.79688 L 343,265.39453 l 2.46094,5.97656 v -22.53906 -14.10156 h 8.75 v 51.05469 z m 55.66406,-18.78907 q 0,4.88282 -1.32813,8.59375 -1.28906,3.67188 -3.75,6.13282 -2.42187,2.46093 -5.9375,3.71093 -3.51562,1.25 -7.89062,1.25 -4.92188,0 -8.4375,-1.25 -3.51563,-1.25 -5.70313,-3.59375 -2.1875,-2.34375 -3.16406,-5.70312 -0.97656,-3.35938 -0.97656,-7.53906 v -33.86719 h 9.60937 v 33.28125 q 0,2.57812 0.42969,4.57031 0.46875,1.99219 1.5625,3.39844 1.13281,1.36719 2.8125,2.07031 1.67969,0.70313 4.21875,0.70313 2.38281,0 4.02344,-0.58594 1.64062,-0.625 2.73437,-1.95313 1.09375,-1.36718 1.64063,-3.47656 0.54687,-2.10937 0.54687,-5.11719 v -32.89062 h 9.60938 z m 10.58594,18.78907 v -51.05469 h 30.74218 v 8.125 h -20.97656 v 12.69531 h 20 v 7.92969 h -20 v 14.17969 h 20.97656 v 8.125 z"
       id="text1"
       style="font-weight:bold;font-size:80px;font-family:Consolas;-inkscape-font-specification:'Consolas Bold';white-space:pre;fill:#ffffff"
       transform="matrix(0.26458333,0,0,0.26458333,-17.481889,-0.96054332)"
       aria-label="CONTINUE" />
  </g>
</svg>
